<?xml version="1.0" encoding="UTF-8" standalone="no"?>
<!DOCTYPE svg PUBLIC "-//W3C//DTD SVG 1.1//EN" "http://www.w3.org/Graphics/SVG/1.1/DTD/svg11.dtd">
<svg width="100%" height="100%" viewBox="0 0 360 64" version="1.1" xmlns="http://www.w3.org/2000/svg" xmlns:xlink="http://www.w3.org/1999/xlink" xml:space="preserve" xmlns:serif="http://www.serif.com/" style="fill-rule:evenodd;clip-rule:evenodd;stroke-linejoin:round;stroke-miterlimit:2;">
    <g transform="matrix(0,-1,-1,0,47.4365,2.057)">
        <path d="M-28.734,-28.734C-44.634,-28.734 -57.525,-15.869 -57.525,0C-57.525,15.87 -44.634,28.734 -28.734,28.734C-12.834,28.734 0.057,15.87 0.057,0C0.057,-15.869 -12.834,-28.734 -28.734,-28.734" style="fill:rgb(254,215,86);fill-rule:nonzero;"/>
    </g>
    <g transform="matrix(1,0,0,1,80.814,35.4619)">
        <path d="M0,-14.187C-7.744,-6.239 -19.706,-4.706 -30.294,-5.26C-43.977,-6.145 -58.776,-9.615 -70.899,-1.231C-73.839,0.63 -76.493,2.967 -78.814,5.673C-77.05,2.565 -74.6,-0.171 -71.787,-2.462C-50.542,-19.86 -22.68,1.792 0,-14.187" style="fill:rgb(0,125,187);fill-rule:nonzero;"/>
    </g>
    <g transform="matrix(1,0,0,1,82.4253,52.0594)">
        <path d="M0,-28.513C-6.813,-19.752 -18.532,-16.895 -29.116,-16.266C-42.812,-15.621 -57.905,-17.421 -69.022,-7.738C-71.737,-5.56 -74.115,-2.942 -76.121,0.006C-74.714,-3.28 -72.582,-6.271 -70.041,-8.862C-50.858,-28.519 -20.766,-10.105 0,-28.513" style="fill:rgb(0,125,187);fill-rule:nonzero;"/>
    </g>
    <g transform="matrix(1,0,0,1,83.8951,62.204)">
        <path d="M0,-36.56C-5.833,-27.115 -17.176,-23.012 -27.631,-21.245C-41.179,-19.127 -56.377,-19.289 -66.39,-8.464C-68.855,-6.006 -70.938,-3.147 -72.617,0C-71.57,-3.418 -69.771,-6.623 -67.523,-9.472C-50.564,-31.083 -18.668,-16.021 0,-36.56" style="fill:rgb(0,125,187);fill-rule:nonzero;"/>
    </g>
    <g transform="matrix(1.04697,0,0,1,-110.223,-68.9279)">
        <path d="M192.277,120.136C191.483,120.136 190.787,120.087 190.188,119.988C189.589,119.89 189.073,119.757 188.64,119.591L188.64,115.026C189.102,115.147 189.6,115.253 190.134,115.344C190.668,115.435 191.238,115.481 191.844,115.481C192.638,115.481 193.359,115.322 194.009,115.004C194.658,114.686 195.174,114.11 195.556,113.278C195.939,112.445 196.13,111.272 196.13,109.758L196.13,77.693L201.325,77.693L201.325,109.576C201.325,112.044 200.95,114.054 200.2,115.605C199.449,117.157 198.396,118.3 197.039,119.035C195.683,119.769 194.095,120.136 192.277,120.136Z" style="fill:rgb(0,125,187);fill-rule:nonzero;"/>
        <path d="M229.551,110.893L211.627,110.893L211.627,77.693L229.551,77.693L229.551,82.28L216.823,82.28L216.823,91.296L228.75,91.296L228.75,95.86L216.823,95.86L216.823,106.283L229.551,106.283L229.551,110.893Z" style="fill:rgb(0,125,187);fill-rule:nonzero;"/>
        <path d="M249.465,110.893L244.247,110.893L244.247,82.326L234.982,82.326L234.982,77.693L258.708,77.693L258.708,82.326L249.465,82.326L249.465,110.893Z" style="fill:rgb(0,125,187);fill-rule:nonzero;"/>
        <path d="M283.925,101.855C283.925,103.823 283.467,105.519 282.55,106.942C281.634,108.365 280.321,109.455 278.61,110.212C276.9,110.969 274.862,111.348 272.495,111.348C271.34,111.348 270.236,111.279 269.183,111.143C268.129,111.007 267.137,110.806 266.206,110.541C265.276,110.276 264.428,109.955 263.663,109.576L263.663,104.444C264.947,105.034 266.383,105.568 267.971,106.045C269.558,106.522 271.175,106.76 272.82,106.76C274.162,106.76 275.277,106.575 276.164,106.204C277.052,105.833 277.712,105.303 278.145,104.614C278.578,103.925 278.794,103.119 278.794,102.196C278.794,101.212 278.542,100.379 278.037,99.698C277.532,99.017 276.77,98.392 275.753,97.824C274.736,97.257 273.462,96.647 271.932,95.996C270.893,95.557 269.901,95.058 268.956,94.497C268.01,93.937 267.17,93.279 266.434,92.522C265.698,91.765 265.117,90.868 264.691,89.831C264.265,88.794 264.053,87.571 264.053,86.163C264.053,84.286 264.482,82.681 265.341,81.349C266.199,80.017 267.411,78.995 268.977,78.283C270.543,77.572 272.372,77.216 274.465,77.216C276.125,77.216 277.687,77.398 279.152,77.761C280.616,78.124 282.056,78.639 283.47,79.305L281.825,83.688C280.526,83.128 279.267,82.681 278.048,82.348C276.828,82.015 275.583,81.849 274.313,81.849C273.217,81.849 272.286,82.023 271.521,82.371C270.756,82.719 270.175,83.207 269.778,83.836C269.381,84.464 269.183,85.21 269.183,86.072C269.183,87.041 269.41,87.855 269.865,88.514C270.319,89.172 271.027,89.774 271.986,90.319C272.946,90.864 274.184,91.47 275.699,92.136C277.445,92.893 278.928,93.688 280.147,94.52C281.367,95.353 282.301,96.348 282.951,97.506C283.6,98.665 283.925,100.114 283.925,101.855Z" style="fill:rgb(0,125,187);fill-rule:nonzero;"/>
        <path d="M303.124,110.893L297.907,110.893L297.907,82.326L288.642,82.326L288.642,77.693L312.367,77.693L312.367,82.326L303.124,82.326L303.124,110.893Z" style="fill:rgb(0,125,187);fill-rule:nonzero;"/>
        <path d="M328.211,77.693C330.938,77.693 333.193,78.041 334.976,78.737C336.758,79.434 338.086,80.494 338.959,81.917C339.832,83.34 340.268,85.149 340.268,87.344C340.268,88.979 339.98,90.372 339.402,91.523C338.825,92.673 338.068,93.627 337.129,94.384C336.191,95.141 335.188,95.746 334.121,96.201L343.104,110.893L337.238,110.893L329.596,97.586L324.509,97.586L324.509,110.893L319.314,110.893L319.314,77.693L328.211,77.693ZM327.864,82.235L324.509,82.235L324.509,93.09L328.103,93.09C330.513,93.09 332.262,92.62 333.352,91.682C334.442,90.743 334.986,89.358 334.986,87.526C334.986,85.603 334.406,84.241 333.244,83.438C332.082,82.636 330.289,82.235 327.864,82.235Z" style="fill:rgb(0,125,187);fill-rule:nonzero;"/>
        <path d="M367.672,110.893L349.748,110.893L349.748,77.693L367.672,77.693L367.672,82.28L354.943,82.28L354.943,91.296L366.871,91.296L366.871,95.86L354.943,95.86L354.943,106.283L367.672,106.283L367.672,110.893Z" style="fill:rgb(0,125,187);fill-rule:nonzero;"/>
        <path d="M396.222,110.893L393.127,101.674L381.026,101.674L377.93,110.893L372.453,110.893L384.23,77.557L389.988,77.557L401.742,110.893L396.222,110.893ZM391.785,96.995L388.776,87.912C388.66,87.518 388.494,86.962 388.278,86.243C388.061,85.524 387.845,84.789 387.628,84.04C387.412,83.291 387.231,82.659 387.087,82.144C386.943,82.765 386.766,83.457 386.557,84.222C386.347,84.986 386.145,85.702 385.951,86.368C385.756,87.034 385.608,87.549 385.507,87.912L382.476,96.995L391.785,96.995Z" style="fill:rgb(0,125,187);fill-rule:nonzero;"/>
        <path d="M421.699,110.893L412.585,83.166L412.391,83.166C412.434,83.786 412.484,84.634 412.542,85.709C412.6,86.784 412.65,87.935 412.694,89.161C412.737,90.387 412.759,91.56 412.759,92.681L412.759,110.893L408.039,110.893L408.039,77.693L415.335,77.693L424.102,104.194L424.232,104.194L433.302,77.693L440.575,77.693L440.575,110.893L435.618,110.893L435.618,92.408C435.618,91.394 435.636,90.296 435.672,89.115C435.708,87.935 435.752,86.814 435.802,85.755C435.853,84.695 435.892,83.847 435.921,83.211L435.748,83.211L426.288,110.893L421.699,110.893Z" style="fill:rgb(0,125,187);fill-rule:nonzero;"/>
    </g>
    <g transform="matrix(1,0,0,1,-100.659,-119.709)">
        <path d="M232.331,174.776L227.746,174.776L227.746,179.522L225.357,179.522L225.357,167.908L232.904,167.908L232.904,169.847L227.746,169.847L227.746,172.846L232.331,172.846L232.331,174.776Z" style="fill:rgb(96,96,96);fill-rule:nonzero;"/>
        <path d="M242.211,174.489L237.625,174.489L237.625,177.6L243.007,177.6L243.007,179.522L235.237,179.522L235.237,167.908L242.991,167.908L242.991,169.847L237.625,169.847L237.625,172.614L242.211,172.614L242.211,174.489Z" style="fill:rgb(96,96,96);fill-rule:nonzero;"/>
        <path d="M245.117,179.522L245.117,167.908L248.684,167.908C249.703,167.908 250.614,168.138 251.418,168.598C252.222,169.058 252.85,169.712 253.301,170.56C253.752,171.409 253.978,172.372 253.978,173.452L253.978,173.986C253.978,175.066 253.756,176.026 253.313,176.866C252.87,177.706 252.245,178.358 251.438,178.82C250.632,179.283 249.721,179.517 248.708,179.522L245.117,179.522ZM247.506,169.847L247.506,177.6L248.66,177.6C249.594,177.6 250.308,177.294 250.801,176.682C251.295,176.071 251.547,175.196 251.558,174.058L251.558,173.444C251.558,172.263 251.314,171.369 250.825,170.76C250.337,170.151 249.623,169.847 248.684,169.847L247.506,169.847Z" style="fill:rgb(96,96,96);fill-rule:nonzero;"/>
        <path d="M263.699,174.489L259.113,174.489L259.113,177.6L264.495,177.6L264.495,179.522L256.725,179.522L256.725,167.908L264.479,167.908L264.479,169.847L259.113,169.847L259.113,172.614L263.699,172.614L263.699,174.489Z" style="fill:rgb(96,96,96);fill-rule:nonzero;"/>
        <path d="M270.896,175.271L268.994,175.271L268.994,179.522L266.606,179.522L266.606,167.908L270.912,167.908C272.282,167.908 273.338,168.214 274.081,168.826C274.824,169.437 275.195,170.301 275.195,171.418C275.195,172.21 275.024,172.871 274.682,173.4C274.339,173.929 273.821,174.351 273.125,174.664L275.633,179.41L275.633,179.522L273.07,179.522L270.896,175.271ZM268.994,173.332L270.92,173.332C271.52,173.332 271.984,173.179 272.313,172.874C272.642,172.568 272.807,172.146 272.807,171.609C272.807,171.062 272.652,170.631 272.341,170.317C272.031,170.003 271.555,169.847 270.912,169.847L268.994,169.847L268.994,173.332Z" style="fill:rgb(96,96,96);fill-rule:nonzero;"/>
        <path d="M284.35,177.129L280.163,177.129L279.367,179.522L276.827,179.522L281.142,167.908L283.355,167.908L287.694,179.522L285.154,179.522L284.35,177.129ZM280.807,175.191L283.705,175.191L282.248,170.844L280.807,175.191Z" style="fill:rgb(96,96,96);fill-rule:nonzero;"/>
        <path d="M291.38,177.6L296.451,177.6L296.451,179.522L288.992,179.522L288.992,167.908L291.38,167.908L291.38,177.6Z" style="fill:rgb(96,96,96);fill-rule:nonzero;"/>
        <path d="M312.845,175.653C312.755,176.903 312.295,177.887 311.464,178.605C310.633,179.323 309.539,179.682 308.18,179.682C306.694,179.682 305.525,179.18 304.673,178.178C303.822,177.176 303.396,175.8 303.396,174.05L303.396,173.34C303.396,172.224 303.592,171.24 303.985,170.389C304.377,169.538 304.939,168.885 305.668,168.431C306.398,167.976 307.246,167.749 308.212,167.749C309.549,167.749 310.627,168.108 311.444,168.826C312.261,169.543 312.734,170.551 312.861,171.849L310.473,171.849C310.414,171.099 310.206,170.555 309.848,170.217C309.49,169.88 308.944,169.711 308.212,169.711C307.416,169.711 306.82,169.997 306.425,170.568C306.029,171.14 305.826,172.027 305.816,173.229L305.816,174.106C305.816,175.361 306.005,176.278 306.385,176.858C306.764,177.438 307.363,177.727 308.18,177.727C308.918,177.727 309.468,177.559 309.832,177.221C310.196,176.883 310.404,176.361 310.457,175.653L312.845,175.653Z" style="fill:rgb(96,96,96);fill-rule:nonzero;"/>
        <path d="M319.222,175.271L317.319,175.271L317.319,179.522L314.931,179.522L314.931,167.908L319.238,167.908C320.607,167.908 321.663,168.214 322.406,168.826C323.149,169.437 323.521,170.301 323.521,171.418C323.521,172.21 323.349,172.871 323.007,173.4C322.665,173.929 322.146,174.351 321.451,174.664L323.958,179.41L323.958,179.522L321.395,179.522L319.222,175.271ZM317.319,173.332L319.246,173.332C319.845,173.332 320.31,173.179 320.639,172.874C320.968,172.568 321.132,172.146 321.132,171.609C321.132,171.062 320.977,170.631 320.667,170.317C320.356,170.003 319.88,169.847 319.238,169.847L317.319,169.847L317.319,173.332Z" style="fill:rgb(96,96,96);fill-rule:nonzero;"/>
        <path d="M333.105,174.489L328.52,174.489L328.52,177.6L333.901,177.6L333.901,179.522L326.132,179.522L326.132,167.908L333.885,167.908L333.885,169.847L328.52,169.847L328.52,172.614L333.105,172.614L333.105,174.489Z" style="fill:rgb(96,96,96);fill-rule:nonzero;"/>
        <path d="M336.012,179.522L336.012,167.908L339.578,167.908C340.597,167.908 341.509,168.138 342.313,168.598C343.117,169.058 343.745,169.712 344.196,170.56C344.647,171.409 344.872,172.372 344.872,173.452L344.872,173.986C344.872,175.066 344.651,176.026 344.208,176.866C343.764,177.706 343.139,178.358 342.333,178.82C341.526,179.283 340.616,179.517 339.602,179.522L336.012,179.522ZM338.4,169.847L338.4,177.6L339.554,177.6C340.489,177.6 341.202,177.294 341.696,176.682C342.19,176.071 342.442,175.196 342.452,174.058L342.452,173.444C342.452,172.263 342.208,171.369 341.72,170.76C341.232,170.151 340.518,169.847 339.578,169.847L338.4,169.847Z" style="fill:rgb(96,96,96);fill-rule:nonzero;"/>
        <rect x="347.771" y="167.908" width="2.388" height="11.614" style="fill:rgb(96,96,96);fill-rule:nonzero;"/>
        <path d="M361.713,169.847L358.163,169.847L358.163,179.522L355.774,179.522L355.774,169.847L352.272,169.847L352.272,167.908L361.713,167.908L361.713,169.847Z" style="fill:rgb(96,96,96);fill-rule:nonzero;"/>
        <path d="M376.808,167.908L376.808,175.558C376.808,176.829 376.411,177.834 375.618,178.573C374.825,179.312 373.741,179.682 372.366,179.682C371.013,179.682 369.938,179.323 369.142,178.605C368.346,177.887 367.94,176.9 367.924,175.645L367.924,167.908L370.312,167.908L370.312,175.574C370.312,176.334 370.494,176.889 370.857,177.237C371.221,177.585 371.724,177.759 372.366,177.759C373.709,177.759 374.391,177.052 374.412,175.638L374.412,167.908L376.808,167.908Z" style="fill:rgb(96,96,96);fill-rule:nonzero;"/>
        <path d="M389.476,179.522L387.088,179.522L382.439,171.881L382.439,179.522L380.05,179.522L380.05,167.908L382.439,167.908L387.096,175.566L387.096,167.908L389.476,167.908L389.476,179.522Z" style="fill:rgb(96,96,96);fill-rule:nonzero;"/>
        <rect x="392.523" y="167.908" width="2.388" height="11.614" style="fill:rgb(96,96,96);fill-rule:nonzero;"/>
        <path d="M407.455,173.978C407.455,175.122 407.253,176.124 406.85,176.986C406.447,177.847 405.869,178.512 405.118,178.98C404.368,179.448 403.506,179.682 402.535,179.682C401.575,179.682 400.717,179.45 399.964,178.988C399.21,178.525 398.626,177.864 398.212,177.005C397.799,176.147 397.589,175.159 397.584,174.042L397.584,173.468C397.584,172.325 397.789,171.318 398.201,170.449C398.612,169.579 399.193,168.912 399.944,168.447C400.695,167.981 401.553,167.749 402.519,167.749C403.485,167.749 404.344,167.981 405.095,168.447C405.846,168.912 406.427,169.579 406.838,170.449C407.249,171.318 407.455,172.322 407.455,173.46L407.455,173.978ZM405.035,173.452C405.035,172.234 404.817,171.309 404.382,170.676C403.947,170.043 403.326,169.727 402.519,169.727C401.718,169.727 401.1,170.039 400.664,170.664C400.229,171.289 400.009,172.205 400.004,173.412L400.004,173.978C400.004,175.164 400.221,176.084 400.656,176.738C401.092,177.392 401.718,177.719 402.535,177.719C403.337,177.719 403.952,177.404 404.382,176.774C404.812,176.144 405.03,175.225 405.035,174.018L405.035,173.452Z" style="fill:rgb(96,96,96);fill-rule:nonzero;"/>
        <path d="M419.426,179.522L417.038,179.522L412.389,171.881L412.389,179.522L410,179.522L410,167.908L412.389,167.908L417.046,175.566L417.046,167.908L419.426,167.908L419.426,179.522Z" style="fill:rgb(96,96,96);fill-rule:nonzero;"/>
    </g>
</svg>
